<?xml version="1.0" encoding="utf-8"?>
<!-- Generator: Adobe Illustrator 27.2.0, SVG Export Plug-In . SVG Version: 6.00 Build 0)  -->
<svg version="1.1" xmlns="http://www.w3.org/2000/svg" xmlns:xlink="http://www.w3.org/1999/xlink" x="0px" y="0px"
	 viewBox="0 0 640 512" style="enable-background:new 0 0 640 512;" xml:space="preserve">
<style type="text/css">
	.st0{fill:#4F8E3F;}
	.st1{fill:#7C5A43;}
	.st2{fill:#E2E2E2;}
</style>
<g id="Слой_1_копия_2">
	<path class="st0" d="M222,176c1-5,2-10,2-16c0-53-43-96-96-96c-54,0-96,43-96,96c0,6,0,11,1,16c-20,14-33,38-33,64
		c0,45,35,80,80,80h16v160c0,18,14,32,32,32c17,0,32-14,32-32V320h16c44,0,80-35,80-80C256,214,242,190,222,176z"/>
</g>
<g id="Слой_1_копия_3">
	<path class="st1" d="M96,320.6V480c0,18,14,32,32,32c17,0,32-14,32-32V320.5C142.3,320.7,116.7,320.7,96,320.6z"/>
</g>
<g id="Слой_1__x28_копия_x29_">
	<path class="st2" d="M592,192h-24v-72c0-13.3-10.7-24-24-24s-24,10.7-24,24v72h-40V48c0-26.5-21.5-48-48-48h-96
		c-26.5,0-48,21.5-48,48v416c0,26.5,21.5,48,48,48h256c26.5,0,48-21.5,48-48V240C640,213.5,618.5,192,592,192z M416,304
		c0,8.8-7.2,16-16,16h-32c-8.8,0-16-7.2-16-16v-32c0-8.8,7.2-16,16-16h32c8.8,0,16,7.2,16,16V304z M416,208c0,8.8-7.2,16-16,16h-32
		c-8.8,0-16-7.2-16-16v-32c0-8.8,7.2-16,16-16h32c8.8,0,16,7.2,16,16V208z M416,112c0,8.8-7.2,16-16,16h-32c-8.8,0-16-7.2-16-16V80
		c0-8.8,7.2-16,16-16h32c8.8,0,16,7.2,16,16V112z M576,400c0,8.8-7.2,16-16,16h-32c-8.8,0-16-7.2-16-16v-32c0-8.8,7.2-16,16-16h32
		c8.8,0,16,7.2,16,16V400z M576,304c0,8.8-7.2,16-16,16h-32c-8.8,0-16-7.2-16-16v-32c0-8.8,7.2-16,16-16h32c8.8,0,16,7.2,16,16V304z
		"/>
</g>
</svg>
